<svg width="150" height="56" viewBox="0 0 150 56" fill="none" xmlns="http://www.w3.org/2000/svg">
<path d="M23.5581 27.9236H22.1295C17.3631 27.9236 14 29.1263 12.0431 31.5349V54.4154H0V17.5381H11.6645V23.7108C12.3677 21.7031 13.4463 20.1249 14.9004 18.9699C16.3545 17.8149 18.2604 17.239 20.6213 17.239C21.3245 17.239 21.9131 17.2772 22.3904 17.3536C22.8677 17.4299 23.3545 17.5413 23.8572 17.6908L23.5549 27.9267L23.5581 27.9236Z" fill="#F2F2F2"/>
<path d="M27.774 6.77409C27.774 4.86818 28.4008 3.26136 29.6544 1.95682C30.9081 0.652272 32.5403 0 34.5481 0C36.5558 0 38.1849 0.652272 39.4417 1.95682C40.6953 3.26136 41.3221 4.86818 41.3221 6.77409C41.3221 8.68 40.6953 10.2868 39.4417 11.5914C38.188 12.8959 36.5558 13.5482 34.5481 13.5482C32.5403 13.5482 30.9081 12.8959 29.6544 11.5914C28.4008 10.2868 27.774 8.68318 27.774 6.77409Z" fill="#4269F4"/>
<path d="M40.568 17.5381H28.5249V54.4185H40.568V17.5381Z" fill="#F2F2F2"/>
<path d="M84.5247 54.4156H73.0098V49.7924C71.8548 51.4343 70.3625 52.742 68.533 53.7124C66.7002 54.6829 64.508 55.1697 61.9466 55.1697C59.888 55.1697 57.9566 54.7306 56.1525 53.8524C54.3453 52.9743 52.7766 51.7206 51.4498 50.0884C50.1198 48.4593 49.0794 46.4897 48.3253 44.1797C47.5712 41.8729 47.1958 39.2861 47.1958 36.4288C47.1958 33.2184 47.7112 30.3834 48.7389 27.9238C49.7666 25.4675 51.1476 23.4088 52.8785 21.7511C54.6094 20.0934 56.6298 18.8525 58.9366 18.0252C61.2434 17.1979 63.703 16.7843 66.3121 16.7843C67.6166 16.7843 68.7684 16.8734 69.7739 17.0484C70.7761 17.2234 71.6798 17.4366 72.4848 17.6879V1.2793H84.5279V54.4156H84.5247ZM66.3089 45.987C68.867 45.987 70.9257 45.1311 72.4816 43.4193V26.422C71.3775 26.0211 69.9457 25.8175 68.1925 25.8175C65.1825 25.8175 62.9362 26.7497 61.4566 28.6143C59.9771 30.4788 59.2357 33.0211 59.2357 36.2443C59.2357 39.1143 59.7989 41.4561 60.9284 43.2697C62.058 45.0834 63.8493 45.9902 66.3089 45.9902V45.987Z" fill="#F2F2F2"/>
<path d="M92.8038 6.77409C92.8038 4.86818 93.4306 3.26136 94.6843 1.95682C95.9379 0.652272 97.5702 0 99.5779 0C101.586 0 103.215 0.652272 104.471 1.95682C105.725 3.26136 106.352 4.86818 106.352 6.77409C106.352 8.68 105.725 10.2868 104.471 11.5914C103.218 12.8959 101.586 13.5482 99.5779 13.5482C97.5702 13.5482 95.9379 12.8959 94.6843 11.5914C93.4306 10.2868 92.8038 8.68318 92.8038 6.77409Z" fill="#4269F4"/>
<path d="M105.598 17.5381H93.5547V54.4185H105.598V17.5381Z" fill="#F2F2F2"/>
<path d="M114.628 54.4155V17.5383H126.219V22.3555C127.374 20.3478 128.866 18.9192 130.696 18.0664C132.529 17.2137 134.47 16.7874 136.528 16.7874C138.985 16.7874 141.069 17.3028 142.774 18.3305C144.48 19.3583 145.873 20.7264 146.952 22.4319C148.03 24.1374 148.807 26.1069 149.284 28.3405C149.761 30.5742 150 32.9192 150 35.3787V54.4219H137.957V35.1528C137.957 32.0919 137.48 29.8455 136.528 28.4169C135.574 26.9883 134.12 26.2723 132.163 26.2723C130.909 26.2723 129.818 26.5492 128.889 27.0996C127.96 27.6533 127.221 28.331 126.668 29.1328V54.4219H114.625L114.628 54.4155Z" fill="#F2F2F2"/>
</svg>
