<svg width="150" height="56" viewBox="0 0 150 56" fill="none" xmlns="http://www.w3.org/2000/svg">
<path d="M23.5581 27.9249H22.1295C17.3631 27.9249 14 29.1277 12.0431 31.5364V54.4179H0V17.539H11.6645V23.712C12.3677 21.7042 13.4463 20.1259 14.9004 18.9709C16.3545 17.8158 18.2604 17.2399 20.6213 17.2399C21.3245 17.2399 21.9131 17.2781 22.3904 17.3544C22.8677 17.4308 23.3545 17.5422 23.8572 17.6917L23.5549 27.9281L23.5581 27.9249Z" fill="#010E26"/>
<path d="M27.774 6.7744C27.774 4.86841 28.4008 3.26151 29.6545 1.95691C30.9081 0.652303 32.5404 0 34.5481 0C36.5558 0 38.1849 0.652303 39.4417 1.95691C40.6953 3.26151 41.3222 4.86841 41.3222 6.7744C41.3222 8.6804 40.6953 10.2873 39.4417 11.5919C38.1881 12.8965 36.5558 13.5488 34.5481 13.5488C32.5404 13.5488 30.9081 12.8965 29.6545 11.5919C28.4008 10.2873 27.774 8.68358 27.774 6.7744Z" fill="#4269F4"/>
<path d="M40.5681 17.5389H28.5249V54.4211H40.5681V17.5389Z" fill="#010E26"/>
<path d="M84.5247 54.4179H73.0098V49.7945C71.8548 51.4364 70.3625 52.7441 68.533 53.7146C66.7003 54.6851 64.508 55.172 61.9466 55.172C59.888 55.172 57.9566 54.7329 56.1526 53.8546C54.3485 52.9764 52.7767 51.7227 51.4499 50.0904C50.1199 48.4612 49.0794 46.4916 48.3253 44.1815C47.5712 41.8746 47.1958 39.2876 47.1958 36.4302C47.1958 33.2196 47.7112 30.3845 48.7389 27.9248C49.7667 25.4683 51.1476 23.4096 52.8785 21.7518C54.6094 20.094 56.6298 18.853 58.9366 18.0257C61.2435 17.1984 63.703 16.7848 66.3121 16.7848C67.6166 16.7848 68.7684 16.8739 69.7739 17.0489C70.7762 17.2239 71.6798 17.4371 72.4848 17.6884V1.27905H84.5279V54.4179H84.5247ZM66.3089 45.9888C68.8671 45.9888 70.9257 45.1329 72.4816 43.421V26.4229C71.3775 26.022 69.9457 25.8184 68.1925 25.8184C65.1825 25.8184 62.9362 26.7507 61.4566 28.6153C59.9771 30.4799 59.2357 33.0223 59.2357 36.2457C59.2357 39.1158 59.7989 41.4577 60.9285 43.2714C62.058 45.0852 63.8494 45.992 66.3089 45.992V45.9888Z" fill="#010E26"/>
<path d="M92.8038 6.7744C92.8038 4.86841 93.4306 3.26151 94.6843 1.95691C95.9379 0.652303 97.5702 0 99.5779 0C101.586 0 103.215 0.652303 104.472 1.95691C105.725 3.26151 106.352 4.86841 106.352 6.7744C106.352 8.6804 105.725 10.2873 104.472 11.5919C103.218 12.8965 101.586 13.5488 99.5779 13.5488C97.5702 13.5488 95.9379 12.8965 94.6843 11.5919C93.4306 10.2873 92.8038 8.68358 92.8038 6.7744Z" fill="#4269F4"/>
<path d="M105.598 17.5389H93.5547V54.4211H105.598V17.5389Z" fill="#010E26"/>
<path d="M114.628 54.418V17.539H126.219V22.3565C127.374 20.3487 128.866 18.92 130.696 18.0672C132.529 17.2145 134.47 16.7881 136.528 16.7881C138.985 16.7881 141.069 17.3036 142.774 18.3313C144.48 19.3591 145.873 20.7274 146.952 22.4329C148.03 24.1384 148.807 26.1081 149.284 28.3418C149.761 30.5755 150 32.9206 150 35.3803V54.4244H137.957V35.1544C137.957 32.0933 137.48 29.8469 136.528 28.4182C135.574 26.9895 134.12 26.2735 132.163 26.2735C130.909 26.2735 129.818 26.5504 128.889 27.1008C127.96 27.6545 127.221 28.3323 126.668 29.1341V54.4244H114.625L114.628 54.418Z" fill="#010E26"/>
</svg>
