<svg width="30" height="30" viewBox="0 0 30 30" fill="none" xmlns="http://www.w3.org/2000/svg">
<path d="M3.37502 11.8125C3.49367 11.9437 3.61883 12.0688 3.75001 12.1875V27.5C3.75001 27.8315 3.88171 28.1495 4.11613 28.3839C4.35055 28.6183 4.66849 28.75 5.00001 28.75H25C25.3315 28.75 25.6495 28.6183 25.8839 28.3839C26.1183 28.1495 26.25 27.8315 26.25 27.5V12.19C26.3812 12.0713 26.5064 11.9462 26.625 11.815C27.0979 11.2129 27.4262 10.5103 27.5846 9.76133C27.743 9.01234 27.7273 8.23697 27.5388 7.495L26.2125 2.1975C26.145 1.92696 25.989 1.68675 25.7693 1.51506C25.5496 1.34338 25.2788 1.25008 25 1.25H5.00001C4.72119 1.25008 4.45039 1.34338 4.23069 1.51506C4.01098 1.68675 3.85499 1.92696 3.78751 2.1975L2.46501 7.4925C2.27592 8.23419 2.25963 9.00939 2.4174 9.75837C2.57517 10.5074 2.90279 11.2101 3.37502 11.8125ZM16.25 26.25H13.75V20H16.25V26.25ZM23.75 26.25H18.75V18.75C18.75 18.4185 18.6183 18.1005 18.3839 17.8661C18.1495 17.6317 17.8315 17.5 17.5 17.5H12.5C12.1685 17.5 11.8506 17.6317 11.6161 17.8661C11.3817 18.1005 11.25 18.4185 11.25 18.75V26.25H6.25001V13.625C7.13505 13.8271 8.05845 13.7837 8.92063 13.4995C9.78281 13.2153 10.5511 12.7012 11.1425 12.0125C11.175 12.05 11.2088 12.0862 11.2425 12.1237C11.7286 12.6457 12.3187 13.0601 12.9747 13.3402C13.6307 13.6203 14.338 13.7599 15.0513 13.75C15.7477 13.7494 16.4365 13.6047 17.0743 13.3251C17.7122 13.0454 18.2852 12.6368 18.7575 12.125C18.7913 12.0875 18.825 12.0512 18.8575 12.0137C19.4491 12.7022 20.2174 13.2161 21.0796 13.5001C21.9418 13.784 22.8651 13.8272 23.75 13.625V26.25ZM4.88876 8.09875L5.97626 3.75H24.0238L25.1113 8.09875C25.2047 8.47272 25.2117 8.86308 25.1317 9.24016C25.0517 9.61724 24.8868 9.97112 24.6495 10.2749C24.4123 10.5787 24.1089 10.8244 23.7624 10.9934C23.4159 11.1623 23.0355 11.2501 22.65 11.25C22.0153 11.246 21.405 11.0055 20.9381 10.5756C20.4712 10.1457 20.1813 9.55718 20.125 8.925L20.0725 8.3C20.0419 7.97205 19.8831 7.66944 19.6306 7.45793C19.3782 7.24642 19.0524 7.1431 18.7242 7.17044C18.3959 7.19778 18.0918 7.35356 17.8777 7.60393C17.6637 7.8543 17.5572 8.17901 17.5813 8.5075C17.6116 8.85656 17.5684 9.2081 17.4545 9.53944C17.3406 9.87079 17.1585 10.1746 16.92 10.4312C16.6691 10.7008 16.3633 10.9134 16.0233 11.0546C15.6832 11.1959 15.3168 11.2625 14.9488 11.25C14.5983 11.25 14.2517 11.1773 13.9308 11.0366C13.6099 10.8959 13.3216 10.6902 13.0841 10.4326C12.8466 10.1749 12.6651 9.87078 12.551 9.53946C12.437 9.20813 12.3928 8.85676 12.4213 8.5075C12.4486 8.17715 12.3436 7.84947 12.1293 7.59654C11.9151 7.3436 11.6091 7.18613 11.2788 7.15875C11.1149 7.14334 10.9497 7.1608 10.7927 7.2101C10.6357 7.25939 10.4901 7.33954 10.3645 7.44583C10.2388 7.55213 10.1357 7.68243 10.0611 7.82911C9.98651 7.97578 9.94194 8.13587 9.93001 8.3L9.87751 8.925C9.8212 9.55761 9.53096 10.1465 9.06353 10.5764C8.59611 11.0064 7.98512 11.2466 7.35002 11.25C6.96454 11.2501 6.58411 11.1623 6.23764 10.9934C5.89117 10.8244 5.58777 10.5787 5.35049 10.2749C5.11321 9.97112 4.94831 9.61724 4.8683 9.24016C4.7883 8.86308 4.79529 8.47272 4.88876 8.09875Z" fill="black"/>
</svg>
