<svg width="61" height="61" viewBox="0 0 61 61" fill="none" xmlns="http://www.w3.org/2000/svg">
<path d="M30.256 15.738C34.648 15.738 38.186 19.276 38.186 23.668V25.681C35.563 25.376 32.879 25.254 30.256 25.254C27.633 25.254 24.949 25.376 22.326 25.681V23.668C22.326 19.337 25.864 15.738 30.256 15.738Z" fill="black"/>
<path d="M44.652 38.918L45.445 31.964C47.214 32.269 48.556 33.733 48.556 35.38C48.556 37.332 46.787 38.918 44.652 38.918Z" fill="black"/>
<path d="M15.799 38.918C13.664 38.918 11.895 37.332 11.895 35.38C11.895 33.672 13.237 32.269 15.006 31.964L15.799 38.918Z" fill="black"/>
<path d="M41.907 27.389C37.881 26.962 34.038 26.779 30.317 26.779C26.596 26.779 22.692 26.962 18.727 27.389C17.385 27.511 16.409 28.731 16.592 30.012L17.812 41.846C17.934 42.944 18.788 43.859 19.947 43.981C23.363 44.408 26.84 44.591 30.378 44.591C33.916 44.591 37.393 44.408 40.809 43.981C41.907 43.859 42.822 42.944 42.944 41.846L44.164 30.012C44.164 28.67 43.249 27.511 41.907 27.389ZM23.546 38.125C22.57 38.125 21.838 37.149 21.838 35.868C21.838 34.587 22.631 33.611 23.546 33.611C24.461 33.611 25.254 34.587 25.254 35.868C25.254 37.149 24.522 38.125 23.546 38.125ZM33.733 40.626C33.733 40.748 33.672 40.87 33.611 40.931C33.55 40.992 33.428 41.053 33.306 41.053H27.267C27.145 41.053 27.023 40.992 26.962 40.931C26.901 40.87 26.84 40.748 26.84 40.626V39.528C26.84 39.284 27.023 39.101 27.267 39.101H27.389C27.633 39.101 27.816 39.284 27.816 39.528V40.077H32.757V39.528C32.757 39.284 32.94 39.101 33.184 39.101H33.306C33.55 39.101 33.733 39.284 33.733 39.528V40.626ZM36.966 38.125C35.99 38.125 35.258 37.149 35.258 35.868C35.258 34.587 36.051 33.611 36.966 33.611C37.881 33.611 38.674 34.587 38.674 35.868C38.674 37.149 37.942 38.125 36.966 38.125Z" fill="black"/>
</svg>
