<svg width="35" height="35" viewBox="0 0 35 35" fill="none" xmlns="http://www.w3.org/2000/svg">
<g clip-path="url(#clip0_6_228)">
<path d="M17.5 35C7.875 35 0 27.125 0 17.5C0 7.875 7.875 0 17.5 0C27.125 0 35 7.875 35 17.5C35 27.125 27.125 35 17.5 35ZM17.5 3.5C9.8 3.5 3.5 9.8 3.5 17.5C3.5 25.2 9.8 31.5 17.5 31.5C25.2 31.5 31.5 25.2 31.5 17.5C31.5 9.8 25.2 3.5 17.5 3.5Z" fill="black"/>
<path d="M15.05 19.95C13.65 18.55 10.15 9.97498 10.15 9.97498C10.15 9.97498 18.725 13.475 20.125 14.875C21.525 16.275 21.525 18.375 20.125 19.775C18.55 21.35 16.45 21.35 15.05 19.95Z" fill="black"/>
</g>
<defs>
<clipPath id="clip0_6_228">
<rect width="35" height="35" fill="white"/>
</clipPath>
</defs>
</svg>
